<svg xmlns="http://www.w3.org/2000/svg" xmlns:xlink="http://www.w3.org/1999/xlink" width="261" zoomAndPan="magnify" viewBox="0 0 195.75 195.750001" height="261" preserveAspectRatio="xMidYMid meet" version="1.2"><defs><clipPath id="78ca995270"><path d="M 0 0 L 195.5 0 L 195.5 195.5 L 0 195.5 Z M 0 0 "/></clipPath><clipPath id="3b8f6d4e37"><path d="M 97.75 0 C 43.765625 0 0 43.765625 0 97.75 C 0 151.734375 43.765625 195.5 97.75 195.5 C 151.734375 195.5 195.5 151.734375 195.5 97.75 C 195.5 43.765625 151.734375 0 97.75 0 Z M 97.75 0 "/></clipPath><clipPath id="ea90834120"><path d="M 54 107 L 145 107 L 145 148.996094 L 54 148.996094 Z M 54 107 "/></clipPath><clipPath id="bed06bad6c"><path d="M 41 96 L 154.527344 96 L 154.527344 164.691406 L 41 164.691406 Z M 41 96 "/></clipPath><clipPath id="9fb9620011"><path d="M 40.671875 95 L 154.527344 95 L 154.527344 164.691406 L 40.671875 164.691406 Z M 40.671875 95 "/></clipPath><clipPath id="5032c99209"><path d="M 60 141 L 144 141 L 144 164.691406 L 60 164.691406 Z M 60 141 "/></clipPath><clipPath id="0fc4824a08"><path d="M 64 30.613281 L 134 30.613281 L 134 99 L 64 99 Z M 64 30.613281 "/></clipPath></defs><g id="fbf5881d55"><g clip-rule="nonzero" clip-path="url(#78ca995270)"><g clip-rule="nonzero" clip-path="url(#3b8f6d4e37)"><path style=" stroke:none;fill-rule:nonzero;fill:#b4b4b4;fill-opacity:1;" d="M 0 0 L 195.5 0 L 195.5 195.5 L 0 195.5 Z M 0 0 "/></g></g><path style=" stroke:none;fill-rule:nonzero;fill:#ffffff;fill-opacity:1;" d="M 140.082031 136.929688 C 139.773438 137.148438 139.425781 137.367188 139.117188 137.585938 C 138.765625 137.804688 138.460938 138.023438 138.109375 138.199219 C 137.804688 138.375 137.539062 138.550781 137.234375 138.722656 C 137.1875 138.769531 137.144531 138.769531 137.101562 138.8125 C 136.09375 139.421875 135.042969 139.992188 133.988281 140.515625 C 133.683594 140.691406 133.332031 140.867188 133.023438 140.996094 C 133.023438 140.996094 132.980469 141.039062 132.9375 141.039062 L 131.886719 141.566406 C 131.183594 141.914062 130.4375 142.222656 129.738281 142.527344 C 129.386719 142.703125 128.992188 142.832031 128.640625 142.964844 C 128.289062 143.09375 127.898438 143.269531 127.546875 143.402344 C 127.195312 143.53125 126.800781 143.707031 126.449219 143.839844 L 126.40625 143.839844 C 126.054688 143.96875 125.660156 144.101562 125.308594 144.230469 C 124.519531 144.492188 123.6875 144.757812 122.898438 145.019531 C 122.636719 145.105469 122.328125 145.195312 122.066406 145.28125 C 121.234375 145.542969 120.402344 145.761719 119.566406 145.9375 C 119.261719 146.023438 118.953125 146.066406 118.605469 146.15625 C 117.816406 146.328125 116.980469 146.503906 116.191406 146.679688 C 116.019531 146.722656 115.886719 146.722656 115.710938 146.765625 C 115.449219 146.8125 115.140625 146.855469 114.878906 146.898438 C 114.484375 146.941406 114.132812 147.03125 113.738281 147.074219 C 113.5625 147.117188 113.386719 147.117188 113.210938 147.160156 C 112.992188 147.203125 112.730469 147.246094 112.46875 147.246094 C 111.765625 147.335938 111.019531 147.421875 110.320312 147.511719 C 110.101562 147.554688 109.835938 147.554688 109.617188 147.597656 L 109.574219 147.597656 C 109.265625 147.640625 108.960938 147.640625 108.652344 147.683594 C 108.347656 147.730469 108.039062 147.730469 107.734375 147.730469 C 107.558594 147.730469 107.339844 147.773438 107.164062 147.773438 C 106.8125 147.773438 106.503906 147.816406 106.199219 147.816406 C 105.761719 147.816406 105.367188 147.859375 104.929688 147.859375 L 102.734375 147.859375 C 84.238281 147.597656 67.625 139.773438 55.746094 127.359375 C 55.746094 127.359375 55.746094 127.316406 55.703125 127.316406 C 54.386719 126.132812 55.527344 119.839844 60.832031 115.863281 C 67.492188 110.835938 83.449219 107.6875 83.449219 107.6875 C 83.449219 107.6875 89.628906 106.683594 112.554688 111.445312 C 125.96875 114.246094 136.179688 118.308594 141.878906 129.324219 C 143.0625 131.597656 144.246094 135.097656 140.082031 136.933594 Z M 140.082031 136.929688 "/><g clip-rule="nonzero" clip-path="url(#ea90834120)"><path style=" stroke:none;fill-rule:nonzero;fill:#000000;fill-opacity:1;" d="M 112.6875 110.964844 C 121.101562 112.671875 130.089844 114.507812 137.015625 120.058594 C 139.335938 121.9375 140.871094 124.691406 142.140625 127.359375 C 142.757812 128.667969 143.371094 130.023438 143.851562 131.46875 C 144.113281 132.429688 144.507812 133.523438 144.289062 134.660156 C 144.246094 134.964844 143.984375 135.359375 143.765625 135.578125 C 142.757812 136.582031 141.660156 137.195312 140.5625 137.980469 C 134.121094 142.441406 126.714844 145.585938 119.042969 147.246094 C 101.945312 150.964844 83.449219 148.078125 68.414062 139.117188 C 63.417969 136.101562 58.816406 132.429688 54.871094 128.101562 C 54.429688 127.578125 54.429688 126.703125 54.429688 126.132812 C 54.476562 124.824219 54.824219 123.554688 55.265625 122.375 C 56.316406 119.664062 57.675781 116.953125 60 115.074219 C 61.664062 113.9375 63.460938 112.976562 65.300781 112.191406 C 71.089844 109.742188 77.179688 108.039062 83.449219 107.335938 C 83.976562 107.292969 84.0625 108.039062 83.535156 108.125 C 77.53125 109.347656 71.570312 111.183594 66.003906 113.675781 C 63.988281 114.679688 61.839844 115.554688 60.21875 117.128906 C 58.683594 118.789062 57.585938 120.84375 56.710938 122.941406 C 56.140625 124.210938 55.746094 126.222656 55.921875 127.226562 C 58.683594 130.503906 61.925781 133.390625 65.433594 135.882812 C 84.632812 149.257812 113.78125 150.132812 134.207031 138.984375 C 136.050781 137.980469 137.847656 136.84375 139.554688 135.664062 C 140.390625 135.09375 141.265625 134.613281 141.921875 133.960938 C 141.96875 133.914062 141.921875 133.960938 141.921875 134.003906 C 141.921875 134.046875 141.878906 134.089844 141.878906 134.089844 C 141.921875 133.566406 141.746094 132.867188 141.527344 132.167969 C 140.738281 129.632812 139.46875 126.964844 138.109375 124.648438 C 135.960938 121.195312 132.324219 119.007812 128.640625 117.261719 C 126.097656 116.082031 123.425781 115.164062 120.707031 114.289062 C 117.988281 113.414062 115.230469 112.671875 112.46875 112.015625 C 111.765625 111.839844 111.984375 110.835938 112.6875 110.964844 Z M 112.6875 110.964844 "/></g><g clip-rule="nonzero" clip-path="url(#bed06bad6c)"><path style=" stroke:none;fill-rule:nonzero;fill:#ffffff;fill-opacity:1;" d="M 146.085938 143.140625 C 145.253906 136.667969 141.574219 125.785156 139.335938 122.855469 C 136.882812 119.664062 135.875 118.660156 127.675781 115.90625 C 127.238281 113.71875 125.617188 108.210938 123.6875 105.894531 C 120.75 101.480469 112.730469 100.476562 110.320312 101 C 110.320312 101 97.34375 96.453125 82.398438 96.453125 C 77.664062 97.503906 72.183594 99.644531 69.203125 104.148438 C 67.1875 107.121094 69.464844 108.082031 68.457031 110.792969 C 68.195312 111.492188 62.058594 114.988281 59.558594 117.085938 C 58.421875 118.003906 57.148438 120.320312 56.273438 123.335938 C 54.519531 129.5 56.402344 138.023438 54.210938 145.457031 C 50.003906 159.792969 41.457031 164.078125 41.457031 164.078125 L 154.722656 164.078125 C 154.636719 164.035156 147.882812 156.777344 146.085938 143.140625 Z M 146.085938 143.140625 "/></g><g clip-rule="nonzero" clip-path="url(#9fb9620011)"><path style=" stroke:none;fill-rule:nonzero;fill:#000000;fill-opacity:1;" d="M 145.429688 143.226562 C 144.554688 137.5 142.800781 131.816406 140.5625 126.484375 C 139.46875 123.90625 137.804688 121.414062 135.480469 119.882812 C 134.296875 119.140625 132.980469 118.570312 131.621094 118.003906 C 130.261719 117.480469 128.859375 117 127.503906 116.515625 C 127.28125 116.429688 127.109375 116.253906 127.0625 116.035156 C 126.886719 115.164062 126.667969 114.332031 126.40625 113.457031 C 125.265625 109.917969 124.039062 105.984375 120.707031 103.929688 C 118.164062 102.398438 115.140625 101.65625 112.203125 101.523438 C 111.632812 101.523438 111.019531 101.523438 110.496094 101.609375 L 110.320312 101.609375 C 110.277344 101.609375 110.1875 101.609375 110.144531 101.566406 C 108.039062 100.5625 105.714844 99.949219 103.4375 99.339844 C 96.597656 97.765625 89.453125 97.109375 82.441406 97.066406 C 78.144531 98.070312 72.140625 100.429688 69.511719 104.800781 C 69.070312 105.5 68.851562 106.199219 68.941406 106.988281 C 69.027344 107.863281 69.335938 108.824219 69.117188 109.742188 C 69.027344 110.136719 68.941406 110.574219 68.765625 110.921875 C 68.414062 111.402344 67.84375 111.710938 67.40625 112.015625 C 65.125 113.5 62.804688 114.8125 60.613281 116.34375 C 59.867188 116.867188 59.164062 117.347656 58.640625 118.089844 C 57.105469 120.277344 56.183594 122.898438 55.789062 125.523438 C 55.089844 130.855469 55.789062 136.277344 55.089844 141.609375 C 54.300781 146.941406 52.238281 152.101562 49.347656 156.644531 C 47.332031 159.707031 44.875 162.546875 41.765625 164.515625 L 41.457031 163.289062 L 154.722656 163.289062 L 154.242188 164.382812 C 152.925781 162.898438 151.875 161.28125 150.910156 159.574219 C 147.929688 154.589844 146.175781 148.953125 145.429688 143.226562 Z M 146.746094 143.050781 C 147.226562 146.765625 148.148438 150.4375 149.550781 153.9375 C 150.953125 157.390625 152.707031 160.753906 155.160156 163.597656 C 155.511719 163.988281 155.203125 164.734375 154.679688 164.691406 L 41.414062 164.691406 C 41.0625 164.691406 40.753906 164.382812 40.753906 164.035156 C 40.753906 163.773438 40.886719 163.554688 41.105469 163.464844 C 41.808594 163.070312 42.507812 162.503906 43.167969 161.9375 C 48.910156 156.777344 52.503906 149.128906 53.6875 141.523438 C 54.695312 134.394531 52.808594 126.703125 56.007812 119.925781 C 56.753906 118.351562 57.675781 116.691406 59.164062 115.6875 C 61.882812 113.675781 64.863281 112.191406 67.539062 110.222656 C 67.582031 110.222656 67.582031 110.179688 67.582031 110.179688 C 67.539062 110.222656 67.492188 110.308594 67.492188 110.355469 C 67.757812 109.742188 67.84375 109.21875 67.757812 108.519531 C 67.625 107.644531 67.40625 106.464844 67.714844 105.546875 C 67.84375 105.019531 68.109375 104.539062 68.371094 104.148438 C 71.527344 99.425781 77.09375 97.328125 82.398438 96.148438 C 83.886719 96.191406 85.421875 95.929688 86.914062 95.929688 C 88.972656 95.929688 91.078125 96.234375 93.136719 96.496094 C 99.054688 97.414062 104.753906 98.988281 110.582031 100.257812 L 110.1875 100.210938 C 111.546875 99.949219 112.816406 100.082031 114.132812 100.257812 C 122.546875 101.523438 125.398438 105.195312 127.675781 113.019531 C 127.941406 113.894531 128.160156 114.769531 128.378906 115.6875 L 127.941406 115.164062 C 132.148438 116.648438 136.882812 118.003906 139.554688 121.894531 C 140.519531 123.074219 141.222656 124.472656 141.835938 125.871094 C 144.070312 131.46875 145.824219 137.105469 146.746094 143.050781 Z M 146.746094 143.050781 "/></g><path style=" stroke:none;fill-rule:nonzero;fill:#000000;fill-opacity:1;" d="M 77.003906 114.375 C 80.25 121.28125 85.289062 127.140625 91.296875 131.773438 C 91.515625 131.949219 91.296875 132.296875 91.03125 132.167969 C 85.683594 129.632812 81.171875 125.304688 78.496094 120.058594 C 77.621094 118.308594 76.875 116.429688 76.609375 114.464844 C 76.523438 114.246094 76.875 114.15625 77.003906 114.375 Z M 128.335938 115.816406 C 128.464844 123.117188 125.484375 130.59375 119.789062 135.3125 C 119.65625 135.445312 119.480469 135.402344 119.347656 135.269531 C 119.21875 135.140625 119.261719 134.964844 119.394531 134.832031 C 120.664062 133.609375 121.933594 132.339844 122.898438 130.855469 C 124.914062 127.96875 126.144531 124.5625 126.714844 121.105469 C 126.976562 119.402344 127.152344 117.566406 127.019531 115.863281 C 126.976562 115.03125 128.289062 114.945312 128.335938 115.816406 Z M 102.515625 133.171875 C 101.507812 136.714844 100.675781 140.558594 101.15625 144.230469 C 101.289062 145.0625 100.019531 145.28125 99.84375 144.40625 C 99.625 142.394531 99.886719 140.429688 100.238281 138.503906 C 100.632812 136.582031 101.113281 134.746094 101.773438 132.910156 C 101.945312 132.472656 102.691406 132.691406 102.515625 133.171875 Z M 116.457031 132.515625 C 117.902344 135.621094 118.910156 138.855469 119.699219 142.132812 C 119.789062 142.484375 119.566406 142.832031 119.21875 142.921875 C 118.867188 143.007812 118.515625 142.789062 118.429688 142.441406 C 117.988281 139.992188 117.421875 137.542969 116.632812 135.140625 C 116.367188 134.351562 116.105469 133.566406 115.796875 132.777344 C 115.625 132.386719 116.238281 132.078125 116.457031 132.515625 Z M 116.457031 132.515625 "/><path style=" stroke:none;fill-rule:nonzero;fill:#000000;fill-opacity:1;" d="M 69.378906 110.617188 C 71 119.445312 77.226562 126.921875 84.71875 131.6875 C 87.261719 133.304688 89.980469 134.703125 92.785156 135.839844 C 92.960938 135.925781 93.050781 136.101562 92.960938 136.277344 C 92.917969 136.449219 92.699219 136.539062 92.566406 136.449219 C 89.671875 135.402344 86.867188 134.089844 84.238281 132.515625 C 78.890625 129.371094 74.199219 124.996094 71.042969 119.664062 C 69.421875 116.910156 68.152344 114.027344 67.539062 110.878906 C 67.449219 110.355469 67.800781 109.875 68.328125 109.785156 C 68.808594 109.65625 69.335938 110.046875 69.378906 110.617188 Z M 99.886719 145.195312 C 98.660156 145.0625 97.78125 143.925781 98.046875 142.703125 L 98.527344 140.386719 C 98.703125 139.46875 99.578125 138.8125 100.5 138.941406 C 101.421875 139.03125 102.167969 139.816406 102.167969 140.777344 L 102.167969 143.140625 C 102.210938 144.363281 101.15625 145.324219 99.886719 145.195312 Z M 120.09375 143.574219 C 118.910156 144.011719 117.640625 143.3125 117.332031 142.089844 L 116.761719 139.773438 C 116.542969 138.855469 117.027344 137.9375 117.945312 137.585938 C 118.824219 137.28125 119.832031 137.675781 120.226562 138.503906 L 121.277344 140.648438 C 121.804688 141.828125 121.277344 143.183594 120.09375 143.574219 Z M 120.09375 143.574219 "/><g clip-rule="nonzero" clip-path="url(#5032c99209)"><path style="fill:none;stroke-width:5.126;stroke-linecap:round;stroke-linejoin:round;stroke:#000000;stroke-opacity:1;stroke-miterlimit:10;" d="M 60.203155 340.402937 C 60.203155 340.402937 59.303087 318.098516 56.29989 312.102415 M 236.696688 290.60224 C 236.696688 290.60224 242.302062 322.003577 240.100905 340.402937 M 220.602402 320.797208 C 220.602402 320.797208 205.800294 323.004416 192.798321 322.396764 " transform="matrix(0.438335,0,0,0.437133,36.591323,15.233778)"/></g><path style=" stroke:none;fill-rule:nonzero;fill:#000000;fill-opacity:1;" d="M 83.097656 109.042969 C 82.484375 107.292969 82.222656 105.5 82.351562 103.664062 C 82.351562 103.492188 82.484375 103.402344 82.660156 103.402344 C 82.792969 103.402344 82.921875 103.535156 82.921875 103.664062 C 83.054688 105.328125 83.535156 107.03125 84.324219 108.472656 C 84.71875 109.347656 83.40625 109.917969 83.097656 109.042969 Z M 112.730469 111.359375 C 111.503906 108.605469 108.476562 107.207031 105.804688 106.246094 C 104.140625 105.71875 102.296875 105.328125 100.542969 105.066406 C 96.292969 104.410156 90.289062 103.402344 86.035156 102.964844 C 85.992188 102.964844 85.992188 102.878906 86.035156 102.878906 C 87.261719 102.746094 88.488281 102.746094 89.71875 102.746094 C 93.398438 102.835938 97.082031 103.230469 100.71875 103.796875 C 104.359375 104.363281 108.257812 105.457031 111.019531 108.082031 C 111.898438 109 112.6875 110.046875 112.90625 111.316406 C 112.949219 111.445312 112.773438 111.492188 112.730469 111.359375 Z M 112.730469 111.359375 "/><path style=" stroke:none;fill-rule:nonzero;fill:#ffffff;fill-opacity:1;" d="M 116.804688 122.59375 C 115.886719 127.097656 109.925781 129.804688 99.886719 125.742188 C 89.453125 121.542969 84.9375 111.535156 83.800781 108.5625 C 89.980469 97.019531 85.683594 89.023438 85.683594 89.023438 C 99.929688 87.796875 112.378906 104.410156 112.378906 104.410156 L 114.308594 112.628906 C 114.484375 113.328125 114.832031 113.9375 115.359375 114.375 C 116.28125 115.992188 117.375 119.707031 116.804688 122.59375 Z M 116.804688 122.59375 "/><path style=" stroke:none;fill-rule:nonzero;fill:#000000;fill-opacity:1;" d="M 83.582031 108.691406 C 84.414062 107.425781 84.941406 105.9375 85.289062 104.496094 C 85.949219 101.480469 86.167969 98.421875 86.210938 95.359375 L 86.210938 94.222656 C 86.078125 93.085938 85.683594 91.90625 85.246094 90.859375 C 84.675781 89.457031 86.738281 88.585938 87.394531 89.984375 C 87.480469 90.160156 87.480469 90.464844 87.480469 90.640625 C 87.613281 96.585938 87.875 104.234375 84.105469 109.171875 C 83.84375 109.4375 83.316406 109.042969 83.582031 108.691406 Z M 112.863281 104.320312 C 113.519531 104.714844 113.738281 105.238281 113.824219 105.765625 C 114.089844 106.8125 114 107.949219 114.265625 109.042969 C 114.484375 110.089844 115.140625 111.097656 115.316406 112.191406 C 115.535156 113.328125 116.191406 115.730469 116.457031 116.910156 C 116.542969 117.171875 116.367188 117.480469 116.0625 117.523438 C 115.886719 117.566406 115.753906 117.523438 115.625 117.433594 C 115.054688 116.953125 114.789062 116.472656 114.441406 115.863281 C 113.871094 114.8125 113.476562 113.851562 113.125 112.671875 C 112.816406 111.621094 112.949219 110.484375 112.6875 109.390625 C 112.46875 108.34375 111.851562 107.335938 111.632812 106.246094 C 111.503906 105.71875 111.457031 105.152344 111.851562 104.496094 C 112.117188 104.234375 112.554688 104.148438 112.863281 104.320312 Z M 112.863281 104.320312 "/><path style=" stroke:none;fill-rule:nonzero;fill:#000000;fill-opacity:1;" d="M 116.019531 115.863281 C 107.644531 115.425781 100.808594 112.800781 94.144531 100.957031 C 99.753906 105.894531 106.375 107.773438 113.34375 108.648438 L 114.265625 112.671875 C 114.441406 113.371094 115.492188 115.425781 116.019531 115.863281 Z M 116.019531 115.863281 "/><path style=" stroke:none;fill-rule:nonzero;fill:#000000;fill-opacity:1;" d="M 115.667969 114.246094 C 117.15625 117.042969 118.035156 120.539062 117.113281 123.644531 C 116.414062 125.828125 114.394531 127.445312 112.203125 128.058594 C 107.121094 129.414062 101.246094 127.269531 96.730469 124.867188 C 91.164062 121.761719 87.042969 116.5625 84.414062 110.878906 C 84.238281 110.441406 84.851562 110.089844 85.113281 110.527344 C 86.035156 112.363281 87.085938 114.15625 88.269531 115.773438 C 89.453125 117.433594 90.8125 118.964844 92.347656 120.320312 C 96.820312 124.34375 102.867188 126.832031 108.917969 126.832031 C 115.140625 126.660156 117.507812 123.378906 116.0625 117.347656 C 115.84375 116.386719 115.492188 115.382812 115.007812 114.550781 C 114.746094 114.199219 115.402344 113.808594 115.667969 114.246094 Z M 115.667969 114.246094 "/><path style=" stroke:none;fill-rule:nonzero;fill:#ffffff;fill-opacity:1;" d="M 132.628906 61.746094 C 133.417969 65.417969 133.8125 68.390625 131.667969 78.179688 C 129.5625 87.929688 134.691406 89.941406 122.546875 105.546875 C 117.59375 111.925781 105.585938 110.136719 95.855469 103.535156 C 92.566406 101.304688 91.164062 95.578125 88.710938 91.511719 C 86.78125 88.324219 85.902344 91.644531 83.363281 88.890625 C 79.898438 85.132812 75.734375 77.570312 77.792969 64.191406 C 81.125 42.511719 98.351562 39.976562 111.109375 42.378906 C 123.953125 44.828125 130.527344 52.085938 132.628906 61.746094 Z M 132.628906 61.746094 "/><path style=" stroke:none;fill-rule:nonzero;fill:#000000;fill-opacity:1;" d="M 85.554688 92.78125 C 84.546875 91.078125 83.230469 89.589844 82.003906 88.015625 C 80.820312 86.398438 79.855469 84.605469 79.066406 82.769531 C 73.851562 70.007812 75.867188 52.039062 88.664062 44.523438 C 93.96875 41.460938 100.367188 40.71875 106.332031 41.199219 C 119.085938 42.117188 130.789062 47.976562 133.550781 61.4375 C 135.042969 67.382812 133.023438 73.503906 131.886719 79.316406 C 131.359375 82.203125 131.796875 85.175781 131.753906 88.148438 C 131.710938 91.164062 130.878906 94.179688 129.738281 96.976562 C 129.035156 98.902344 127.808594 100.605469 126.539062 102.179688 C 124.433594 104.714844 122.328125 107.292969 119.65625 109.261719 C 119.042969 109.699219 117.945312 109.917969 117.199219 110.003906 C 115.140625 110.308594 113.125 110.398438 111.0625 110.265625 C 103 109.917969 94.363281 106.027344 91.121094 98.246094 C 90.988281 97.9375 91.425781 97.722656 91.601562 97.984375 C 95.808594 104.628906 103.523438 107.90625 111.195312 108.34375 C 113.5625 108.472656 115.972656 108.429688 118.296875 107.949219 C 119.4375 107.382812 120.445312 106.375 121.410156 105.457031 C 123.777344 103.097656 126.1875 100.5625 127.898438 97.675781 C 129.957031 93.785156 131.097656 89.546875 130.746094 85.132812 C 130.65625 83.164062 130.613281 81.109375 131.007812 79.144531 C 131.359375 77.175781 131.796875 75.296875 132.0625 73.285156 C 132.324219 71.363281 132.457031 69.394531 132.457031 67.472656 C 132.234375 61.832031 130.394531 56.019531 126.800781 51.648438 C 118.867188 41.8125 100.105469 39.230469 89.542969 45.964844 C 82.878906 50.074219 79.765625 57.765625 78.757812 65.242188 C 77.226562 74.203125 77.664062 83.03125 84.808594 89.546875 L 86.914062 91.730469 C 87.746094 92.695312 86.253906 93.832031 85.554688 92.78125 Z M 85.554688 92.78125 "/><path style=" stroke:none;fill-rule:nonzero;fill:#ffffff;fill-opacity:1;" d="M 90.726562 78.878906 C 90.726562 78.878906 89.367188 72.324219 82.964844 73.109375 C 77.445312 73.808594 75.515625 87.011719 88.050781 90.683594 "/><path style=" stroke:none;fill-rule:nonzero;fill:#000000;fill-opacity:1;" d="M 87.480469 84.957031 C 86.472656 84.386719 85.773438 83.425781 85.730469 82.246094 C 85.773438 81.371094 85.902344 80.367188 85.683594 79.492188 C 85.554688 78.660156 84.675781 78.441406 84.019531 78.488281 C 83.316406 78.617188 82.878906 79.492188 82.746094 80.191406 C 82.746094 80.234375 82.703125 80.367188 82.703125 80.410156 C 82.660156 80.628906 82.308594 80.628906 82.222656 80.410156 C 81.652344 78.707031 82.921875 76.824219 84.765625 77.042969 C 87.351562 77.21875 87.703125 79.929688 87.21875 81.984375 C 86.957031 82.859375 87.308594 83.644531 87.789062 84.386719 L 87.875 84.519531 C 88.09375 84.78125 87.746094 85.132812 87.480469 84.957031 Z M 122.546875 74.246094 C 123.207031 77.351562 124.433594 80.234375 125.96875 82.945312 C 127.328125 86.269531 123.820312 89.414062 120.707031 89.285156 C 120.355469 89.285156 120.3125 88.804688 120.621094 88.714844 C 122.59375 88.105469 124.390625 86.792969 124.695312 84.78125 C 124.828125 84.167969 124.652344 83.644531 124.347656 83.121094 C 122.898438 80.410156 122.023438 77.308594 122.242188 74.246094 C 122.242188 74.027344 122.546875 74.027344 122.546875 74.246094 Z M 122.546875 74.246094 "/><path style=" stroke:none;fill-rule:nonzero;fill:#000000;fill-opacity:1;" d="M 90.507812 78.925781 C 89.5 76.34375 87.308594 73.898438 84.371094 73.941406 C 84.105469 73.898438 83.667969 73.984375 83.40625 73.984375 C 82.660156 74.027344 82.046875 74.289062 81.476562 74.816406 C 78.671875 77.613281 79.152344 82.550781 81.433594 85.65625 C 82.222656 86.75 83.230469 87.710938 84.371094 88.496094 C 85.507812 89.285156 86.78125 89.894531 88.140625 90.421875 C 88.445312 90.507812 88.316406 90.988281 88.007812 90.945312 C 85.070312 90.332031 82.265625 88.890625 80.335938 86.488281 C 77.355469 82.902344 76.742188 76.914062 80.292969 73.417969 C 81.082031 72.714844 82.179688 72.191406 83.273438 72.191406 C 83.625 72.191406 84.152344 72.105469 84.5 72.191406 C 86.34375 72.28125 88.09375 73.199219 89.234375 74.640625 C 90.242188 75.863281 90.8125 77.351562 90.988281 78.835938 C 90.988281 79.097656 90.59375 79.1875 90.507812 78.925781 Z M 90.507812 78.925781 "/><g clip-rule="nonzero" clip-path="url(#0fc4824a08)"><path style=" stroke:none;fill-rule:nonzero;fill:#000000;fill-opacity:1;" d="M 127.503906 48.980469 C 125.265625 46.925781 122.460938 44.914062 119.042969 43.558594 C 108.917969 39.449219 99.492188 39.582031 92.085938 42.773438 C 91.867188 38.488281 90.726562 31.933594 85.683594 30.839844 C 78.058594 29.132812 80.6875 37.441406 83.054688 42.640625 C 83.054688 42.640625 73.9375 34.511719 69.949219 40.019531 C 66.136719 45.308594 75.691406 51.078125 75.691406 51.078125 C 75.691406 51.078125 61.53125 52.214844 64.511719 60.257812 C 66.265625 64.890625 72.140625 63.363281 76.832031 61.265625 C 73.015625 76.34375 79.636719 86.617188 83.054688 90.726562 C 86.5625 94.921875 86.867188 98.113281 86.867188 98.113281 C 88.664062 97.109375 86.519531 92.605469 86.605469 90.246094 C 75.648438 86.050781 77.621094 73.851562 82.96875 73.152344 C 88.578125 72.453125 90.332031 77.4375 90.636719 78.660156 C 92.65625 76.257812 92.65625 73.941406 92.261719 71.535156 C 90.726562 62.75 91.601562 57.984375 96.90625 56.847656 C 105.367188 55.011719 112.992188 59.296875 123.074219 60.652344 C 126.800781 61.175781 129.125 57.765625 131.886719 58.992188 C 132.191406 59.910156 132.457031 60.828125 132.675781 61.789062 C 132.851562 62.53125 132.980469 63.230469 133.070312 63.972656 C 133.507812 57.855469 132.234375 53.351562 127.503906 48.980469 Z M 127.503906 48.980469 "/></g><path style=" stroke:none;fill-rule:nonzero;fill:#000000;fill-opacity:1;" d="M 106.199219 78.707031 C 105.148438 78.660156 104.359375 77.789062 104.445312 76.738281 L 104.488281 75.515625 C 104.535156 74.464844 105.410156 73.679688 106.460938 73.765625 C 107.515625 73.808594 108.304688 74.683594 108.214844 75.734375 L 108.171875 76.957031 C 108.128906 77.960938 107.25 78.75 106.199219 78.707031 Z M 124.652344 79.359375 C 123.6875 79.316406 122.941406 78.488281 122.988281 77.523438 L 123.03125 76.390625 C 123.074219 75.425781 123.90625 74.683594 124.871094 74.726562 C 125.835938 74.769531 126.582031 75.601562 126.539062 76.5625 L 126.492188 77.699219 C 126.449219 78.660156 125.617188 79.40625 124.652344 79.359375 Z M 124.652344 79.359375 "/><path style=" stroke:none;fill-rule:nonzero;fill:#000000;fill-opacity:1;" d="M 110.144531 76.34375 C 108.699219 75.382812 107.121094 74.726562 105.367188 75.078125 C 104.796875 75.164062 104.226562 75.339844 103.875 75.734375 C 103.746094 75.90625 103.4375 75.863281 103.4375 75.601562 C 103.480469 74.726562 104.226562 74.160156 104.929688 73.808594 C 106.285156 73.109375 108.171875 73.242188 109.398438 74.160156 C 109.835938 74.421875 111.328125 76.039062 110.539062 76.390625 C 110.363281 76.476562 110.277344 76.433594 110.144531 76.34375 Z M 122.679688 76.5625 C 122.679688 74.726562 124.960938 74.070312 126.363281 74.726562 C 127.152344 75.078125 127.722656 75.777344 127.941406 76.605469 C 128.027344 76.871094 127.632812 77.089844 127.457031 76.871094 C 126.714844 75.996094 125.441406 75.558594 124.433594 76.082031 C 124.125 76.257812 124.082031 76.390625 123.996094 76.5625 C 123.996094 77.4375 122.722656 77.394531 122.679688 76.5625 Z M 112.246094 69.132812 C 113.167969 69.4375 114.089844 68.609375 113.914062 67.601562 C 113.824219 67.078125 113.605469 66.554688 113.167969 66.160156 C 111.851562 64.980469 106.417969 63.929688 103.128906 65.460938 C 100.238281 66.859375 108.039062 67.734375 112.246094 69.132812 Z M 125.355469 69.832031 C 124.609375 70.09375 123.820312 69.308594 123.953125 68.390625 C 123.996094 67.910156 124.171875 67.425781 124.523438 67.078125 C 125.574219 66.027344 129.167969 65.199219 131.449219 66.816406 C 133.421875 68.171875 128.773438 68.5625 125.355469 69.832031 Z M 125.355469 69.832031 "/><path style=" stroke:none;fill-rule:nonzero;fill:#ffffff;fill-opacity:1;" d="M 118.210938 93.480469 C 118.253906 94.921875 116.105469 98.59375 111.984375 96.890625 C 107.996094 95.273438 106.8125 87.667969 112.511719 91.296875 C 115.402344 93.21875 117.246094 93.523438 118.210938 93.480469 Z M 118.210938 93.480469 "/><path style=" stroke:none;fill-rule:nonzero;fill:#000000;fill-opacity:1;" d="M 119.128906 93.523438 C 117.945312 93.917969 116.804688 93.566406 115.710938 93.175781 C 114.089844 92.605469 112.773438 91.558594 111.238281 90.8125 C 109.136719 89.808594 108.304688 91.164062 108.871094 93.132812 C 109.441406 95.230469 111.285156 97.066406 113.5625 97.152344 C 115.578125 97.371094 117.726562 95.535156 117.550781 93.480469 C 117.375 92.605469 118.648438 92.34375 118.867188 93.175781 C 118.824219 94.660156 117.902344 95.710938 116.9375 96.585938 C 115.007812 98.15625 112.074219 97.808594 110.144531 96.367188 C 108.652344 95.183594 107.425781 93.304688 107.6875 91.296875 C 107.777344 90.421875 108.609375 89.414062 109.53125 89.371094 C 111.679688 89.195312 112.949219 90.640625 114.613281 91.601562 C 115.929688 92.34375 117.421875 93.261719 118.953125 93.132812 C 119.21875 93.042969 119.394531 93.394531 119.128906 93.523438 Z M 119.128906 93.523438 "/><path style=" stroke:none;fill-rule:nonzero;fill:#000000;fill-opacity:1;" d="M 108.960938 91.90625 C 109.660156 92.914062 110.757812 93.4375 111.898438 93.699219 C 112.160156 93.785156 112.378906 93.785156 112.597656 93.785156 C 112.992188 93.785156 113.386719 94.09375 113.605469 94.3125 C 114.660156 95.140625 116.105469 95.273438 117.417969 95.316406 C 117.726562 95.316406 117.726562 95.839844 117.417969 95.796875 C 116.015625 95.710938 114.527344 95.578125 113.210938 94.921875 C 112.949219 94.835938 112.816406 94.75 112.597656 94.75 C 111.765625 94.835938 111.109375 94.3125 110.496094 93.960938 C 109.792969 93.566406 109.089844 93.175781 108.257812 93 C 107.863281 92.914062 107.644531 92.5625 107.6875 92.167969 C 107.777344 91.558594 108.652344 91.382812 108.960938 91.90625 Z M 108.960938 91.90625 "/><path style=" stroke:none;fill-rule:nonzero;fill:#000000;fill-opacity:1;" d="M 125.617188 100.828125 C 126.273438 97.375 126.492188 93.875 125.925781 90.421875 C 125.703125 89.113281 124.914062 86.925781 123.6875 87.886719 C 123.207031 88.28125 120.707031 89.066406 120.226562 89.113281 C 118.824219 89.242188 117.769531 89.066406 116.761719 88.28125 C 115.625 87.363281 115.625 86.96875 115.359375 86.882812 C 110.757812 85.351562 104.972656 83.820312 103.085938 89.984375 C 101.550781 95.011719 97.695312 99.953125 94.847656 95.054688 C 92.65625 91.339844 92.785156 84.257812 92.480469 82.773438 C 91.734375 79.101562 90.683594 77.308594 90.066406 77.832031 C 90.066406 79.015625 90.460938 92.957031 90.507812 93.703125 C 90.8125 97.546875 91.296875 98.773438 93.050781 101.265625 C 94.800781 103.753906 100.9375 110.53125 108.917969 111.097656 C 116.9375 111.667969 121.367188 111.011719 125.835938 105.898438 C 129.867188 101.265625 130 91.648438 130 91.648438 C 128.027344 97.460938 126.667969 99.382812 125.617188 100.828125 Z M 107.558594 90.992188 C 109.835938 88.5 113.167969 91.382812 116.761719 91.648438 C 120.3125 91.910156 121.761719 89.679688 122.023438 93.613281 C 122.109375 94.574219 122.242188 96.191406 122.199219 97.285156 L 122.199219 97.417969 C 122.066406 98.640625 121.671875 99.996094 120.445312 100.738281 C 117.859375 102.355469 113.695312 101.964844 111.019531 101.4375 C 107.292969 100.695312 106.503906 98.992188 106.332031 98.203125 C 106.066406 94.839844 106.636719 91.996094 107.558594 90.992188 Z M 107.558594 90.992188 "/><path style=" stroke:none;fill-rule:nonzero;fill:#000000;fill-opacity:1;" d="M 113.300781 84.125 C 111.285156 84.167969 105.058594 84.214844 103.132812 84.257812 C 99.800781 84.300781 97.300781 81.414062 97.609375 78.136719 C 97.652344 77.042969 97.609375 75.515625 97.652344 74.421875 C 97.738281 71.582031 100.28125 69.175781 103.132812 69.261719 L 110.539062 69.351562 C 111.109375 69.351562 112.730469 69.394531 113.300781 69.394531 C 115.667969 69.351562 117.902344 71.097656 118.429688 73.417969 C 118.605469 74.070312 118.558594 74.769531 118.558594 75.339844 L 118.558594 79.054688 C 118.515625 81.808594 116.0625 84.167969 113.300781 84.125 Z M 113.300781 83.164062 C 115.578125 83.25 117.683594 81.285156 117.726562 79.011719 C 117.769531 77.832031 117.726562 76.5625 117.726562 75.339844 C 117.992188 72.671875 115.972656 70.226562 113.257812 70.3125 C 111.371094 70.355469 105.058594 70.398438 103.085938 70.445312 C 100.71875 70.445312 98.703125 72.585938 98.878906 74.945312 L 98.878906 76.34375 C 98.921875 77.308594 98.792969 78.96875 99.011719 79.84375 C 99.449219 81.679688 101.203125 83.078125 103.085938 83.078125 L 104.007812 83.078125 C 105.277344 83.078125 111.984375 83.164062 113.300781 83.164062 Z M 130.964844 70.53125 L 127.503906 70.574219 C 126.539062 70.617188 125.398438 70.445312 124.566406 71.011719 C 123.777344 71.535156 123.425781 72.5 123.46875 73.417969 C 123.46875 74.554688 123.46875 75.734375 123.425781 76.871094 L 123.382812 76.695312 C 123.996094 78.835938 124.828125 80.890625 126.097656 82.683594 L 125.660156 82.421875 C 126.011719 82.507812 126.625 82.507812 126.976562 82.507812 C 128.289062 82.550781 129.824219 82.640625 131.140625 82.640625 C 132.367188 82.640625 133.550781 81.722656 133.8125 80.496094 C 133.902344 80.148438 133.902344 79.535156 133.902344 79.1875 C 133.902344 77.308594 133.945312 75.472656 133.859375 73.589844 C 133.945312 71.929688 132.675781 70.445312 130.964844 70.53125 Z M 130.964844 69.21875 C 133.289062 69.21875 134.910156 71.449219 134.515625 73.632812 C 134.425781 75.515625 134.472656 77.351562 134.472656 79.230469 C 134.691406 81.414062 133.375 83.382812 131.097656 83.558594 C 130.132812 83.601562 129.210938 83.601562 128.289062 83.644531 C 127.808594 83.644531 126.625 83.734375 126.1875 83.734375 C 125.96875 83.777344 125.617188 83.734375 125.398438 83.734375 C 125.222656 83.734375 125.046875 83.601562 124.960938 83.46875 C 123.601562 81.460938 122.636719 79.230469 122.066406 76.914062 C 122.066406 75.425781 121.933594 73.941406 122.066406 72.453125 C 122.328125 70.707031 123.90625 69.21875 125.703125 69.175781 C 126.933594 69.132812 129.738281 69.21875 130.964844 69.21875 Z M 130.964844 69.21875 "/><path style=" stroke:none;fill-rule:nonzero;fill:#000000;fill-opacity:1;" d="M 118.078125 73.242188 C 119.261719 72.714844 120.578125 72.5 121.890625 72.585938 C 122.328125 72.628906 122.769531 72.761719 123.164062 73.109375 L 123.730469 73.589844 C 124.300781 74.070312 123.601562 74.902344 123.03125 74.421875 C 122.328125 73.808594 121.496094 73.898438 120.664062 73.941406 C 119.832031 74.027344 119.042969 74.203125 118.253906 74.507812 C 117.507812 74.816406 117.027344 73.722656 117.726562 73.371094 Z M 98.351562 74.816406 C 98.046875 75.515625 97.695312 75.601562 97.125 75.558594 L 95.855469 75.601562 C 93.3125 75.601562 90.726562 75.558594 88.183594 75.164062 C 87.308594 75.121094 87.261719 73.898438 88.140625 73.851562 L 98.308594 73.503906 C 98.617188 73.503906 98.835938 73.808594 98.703125 74.070312 Z M 98.351562 74.816406 "/></g></svg>