<svg xmlns="http://www.w3.org/2000/svg" xmlns:xlink="http://www.w3.org/1999/xlink" width="261" zoomAndPan="magnify" viewBox="0 0 195.75 230.249992" height="307" preserveAspectRatio="xMidYMid meet" version="1.2"><defs><clipPath id="49ef80b278"><path d="M 0.191406 17.195312 L 195.308594 17.195312 L 195.308594 212.308594 L 0.191406 212.308594 Z M 0.191406 17.195312 "/></clipPath><clipPath id="6fa9850869"><path d="M 97.75 17.195312 C 43.871094 17.195312 0.191406 60.871094 0.191406 114.75 C 0.191406 168.628906 43.871094 212.308594 97.75 212.308594 C 151.628906 212.308594 195.308594 168.628906 195.308594 114.75 C 195.308594 60.871094 151.628906 17.195312 97.75 17.195312 Z M 97.75 17.195312 "/></clipPath><clipPath id="6f61a19caf"><path d="M 54 124 L 145 124 L 145 165.894531 L 54 165.894531 Z M 54 124 "/></clipPath><clipPath id="40fa91fd89"><path d="M 41 113 L 154.414062 113 L 154.414062 181 L 41 181 Z M 41 113 "/></clipPath><clipPath id="6da3c689be"><path d="M 40.785156 112 L 154.414062 112 L 154.414062 181.5625 L 40.785156 181.5625 Z M 40.785156 112 "/></clipPath><clipPath id="15145510f3"><path d="M 60 158 L 144 158 L 144 181.5625 L 60 181.5625 Z M 60 158 "/></clipPath><clipPath id="d29c3323dc"><path d="M 64 47.746094 L 134 47.746094 L 134 116 L 64 116 Z M 64 47.746094 "/></clipPath></defs><g id="351d468d83"><g clip-rule="nonzero" clip-path="url(#49ef80b278)"><g clip-rule="nonzero" clip-path="url(#6fa9850869)"><path style=" stroke:none;fill-rule:nonzero;fill:#b4b4b4;fill-opacity:1;" d="M 0.191406 17.195312 L 195.308594 17.195312 L 195.308594 212.308594 L 0.191406 212.308594 Z M 0.191406 17.195312 "/></g></g><path style=" stroke:none;fill-rule:nonzero;fill:#ffffff;fill-opacity:1;" d="M 140 153.855469 C 139.691406 154.074219 139.34375 154.292969 139.035156 154.507812 C 138.6875 154.726562 138.378906 154.945312 138.03125 155.121094 C 137.722656 155.296875 137.460938 155.46875 137.15625 155.644531 C 137.113281 155.6875 137.066406 155.6875 137.023438 155.730469 C 136.019531 156.34375 134.96875 156.910156 133.917969 157.433594 C 133.613281 157.605469 133.261719 157.78125 132.957031 157.914062 C 132.957031 157.914062 132.910156 157.957031 132.867188 157.957031 L 131.816406 158.480469 C 131.117188 158.828125 130.375 159.132812 129.675781 159.441406 C 129.324219 159.613281 128.929688 159.746094 128.582031 159.875 C 128.230469 160.007812 127.835938 160.179688 127.488281 160.3125 C 127.136719 160.441406 126.742188 160.617188 126.394531 160.75 L 126.351562 160.75 C 126 160.878906 125.605469 161.011719 125.257812 161.140625 C 124.46875 161.402344 123.636719 161.664062 122.851562 161.925781 C 122.585938 162.011719 122.28125 162.101562 122.019531 162.1875 C 121.1875 162.449219 120.355469 162.667969 119.523438 162.84375 C 119.21875 162.929688 118.914062 162.972656 118.5625 163.0625 C 117.777344 163.234375 116.945312 163.410156 116.15625 163.585938 C 115.980469 163.628906 115.851562 163.628906 115.675781 163.671875 C 115.414062 163.714844 115.105469 163.757812 114.84375 163.800781 C 114.449219 163.847656 114.101562 163.933594 113.707031 163.976562 C 113.53125 164.019531 113.355469 164.019531 113.183594 164.0625 C 112.964844 164.109375 112.699219 164.152344 112.4375 164.152344 C 111.738281 164.238281 110.996094 164.324219 110.292969 164.414062 C 110.074219 164.457031 109.8125 164.457031 109.59375 164.5 L 109.550781 164.5 C 109.246094 164.542969 108.9375 164.542969 108.632812 164.585938 C 108.324219 164.632812 108.019531 164.632812 107.714844 164.632812 C 107.539062 164.632812 107.320312 164.675781 107.144531 164.675781 C 106.796875 164.675781 106.488281 164.71875 106.183594 164.71875 C 105.746094 164.71875 105.351562 164.761719 104.914062 164.761719 L 102.726562 164.761719 C 84.265625 164.5 67.683594 156.691406 55.828125 144.300781 C 55.828125 144.300781 55.828125 144.257812 55.785156 144.257812 C 54.472656 143.078125 55.609375 136.796875 60.90625 132.828125 C 67.554688 127.808594 83.476562 124.667969 83.476562 124.667969 C 83.476562 124.667969 89.644531 123.664062 112.527344 128.421875 C 125.914062 131.214844 136.105469 135.269531 141.792969 146.265625 C 142.972656 148.53125 144.15625 152.023438 140 153.855469 Z M 140 153.855469 "/><g clip-rule="nonzero" clip-path="url(#6f61a19caf)"><path style=" stroke:none;fill-rule:nonzero;fill:#000000;fill-opacity:1;" d="M 112.65625 127.941406 C 121.054688 129.640625 130.023438 131.476562 136.9375 137.015625 C 139.253906 138.890625 140.785156 141.640625 142.054688 144.300781 C 142.667969 145.609375 143.28125 146.960938 143.761719 148.402344 C 144.023438 149.363281 144.417969 150.453125 144.199219 151.585938 C 144.15625 151.890625 143.890625 152.285156 143.671875 152.503906 C 142.667969 153.507812 141.574219 154.117188 140.480469 154.902344 C 134.050781 159.351562 126.65625 162.492188 119 164.152344 C 101.9375 167.859375 83.476562 164.980469 68.472656 156.035156 C 63.484375 153.027344 58.890625 149.363281 54.953125 145.042969 C 54.515625 144.519531 54.515625 143.648438 54.515625 143.078125 C 54.5625 141.769531 54.910156 140.503906 55.347656 139.328125 C 56.398438 136.621094 57.753906 133.917969 60.074219 132.042969 C 61.734375 130.90625 63.527344 129.949219 65.367188 129.164062 C 71.140625 126.71875 77.222656 125.019531 83.476562 124.320312 C 84.003906 124.277344 84.089844 125.019531 83.566406 125.105469 C 77.570312 126.328125 71.621094 128.160156 66.066406 130.644531 C 64.054688 131.648438 61.910156 132.523438 60.292969 134.09375 C 58.761719 135.75 57.667969 137.800781 56.792969 139.894531 C 56.222656 141.160156 55.828125 143.167969 56.003906 144.171875 C 58.761719 147.441406 61.996094 150.320312 65.496094 152.808594 C 84.660156 166.15625 113.75 167.03125 134.136719 155.90625 C 135.972656 154.902344 137.769531 153.769531 139.472656 152.589844 C 140.304688 152.023438 141.179688 151.542969 141.835938 150.890625 C 141.878906 150.84375 141.835938 150.890625 141.835938 150.933594 C 141.835938 150.976562 141.792969 151.019531 141.792969 151.019531 C 141.835938 150.496094 141.660156 149.796875 141.441406 149.101562 C 140.65625 146.570312 139.386719 143.910156 138.03125 141.597656 C 135.886719 138.148438 132.253906 135.96875 128.582031 134.222656 C 126.042969 133.046875 123.375 132.128906 120.664062 131.257812 C 117.949219 130.382812 115.195312 129.640625 112.4375 128.988281 C 111.738281 128.8125 111.957031 127.808594 112.65625 127.941406 Z M 112.65625 127.941406 "/></g><g clip-rule="nonzero" clip-path="url(#40fa91fd89)"><path style=" stroke:none;fill-rule:nonzero;fill:#ffffff;fill-opacity:1;" d="M 145.992188 160.050781 C 145.160156 153.59375 141.484375 142.730469 139.253906 139.808594 C 136.804688 136.621094 135.800781 135.621094 127.617188 132.871094 C 127.179688 130.6875 125.5625 125.191406 123.636719 122.878906 C 120.707031 118.472656 112.699219 117.46875 110.292969 117.992188 C 110.292969 117.992188 97.34375 113.457031 82.429688 113.457031 C 77.703125 114.503906 72.234375 116.640625 69.261719 121.136719 C 67.246094 124.101562 69.523438 125.0625 68.515625 127.765625 C 68.253906 128.464844 62.128906 131.953125 59.636719 134.046875 C 58.5 134.964844 57.230469 137.277344 56.355469 140.289062 C 54.605469 146.4375 56.484375 154.945312 54.296875 162.363281 C 50.097656 176.671875 41.566406 180.949219 41.566406 180.949219 L 154.609375 180.949219 C 154.523438 180.902344 147.785156 173.660156 145.992188 160.050781 Z M 145.992188 160.050781 "/></g><g clip-rule="nonzero" clip-path="url(#6da3c689be)"><path style=" stroke:none;fill-rule:nonzero;fill:#000000;fill-opacity:1;" d="M 145.335938 160.136719 C 144.460938 154.421875 142.710938 148.75 140.480469 143.429688 C 139.386719 140.855469 137.722656 138.367188 135.40625 136.839844 C 134.222656 136.097656 132.910156 135.53125 131.554688 134.964844 C 130.199219 134.441406 128.800781 133.960938 127.445312 133.480469 C 127.226562 133.394531 127.050781 133.21875 127.007812 133 C 126.832031 132.128906 126.613281 131.300781 126.351562 130.425781 C 125.210938 126.894531 123.988281 122.96875 120.664062 120.917969 C 118.125 119.390625 115.105469 118.648438 112.175781 118.515625 C 111.605469 118.515625 110.996094 118.515625 110.46875 118.605469 L 110.292969 118.605469 C 110.25 118.605469 110.164062 118.605469 110.121094 118.5625 C 108.019531 117.558594 105.703125 116.945312 103.425781 116.335938 C 96.601562 114.765625 89.472656 114.109375 82.472656 114.066406 C 78.183594 115.070312 72.191406 117.425781 69.566406 121.789062 C 69.128906 122.488281 68.910156 123.183594 68.996094 123.972656 C 69.085938 124.84375 69.390625 125.804688 69.171875 126.71875 C 69.085938 127.113281 68.996094 127.546875 68.824219 127.898438 C 68.472656 128.378906 67.902344 128.683594 67.464844 128.988281 C 65.191406 130.472656 62.871094 131.78125 60.6875 133.308594 C 59.941406 133.832031 59.242188 134.308594 58.71875 135.050781 C 57.1875 137.234375 56.265625 139.851562 55.875 142.46875 C 55.171875 147.792969 55.875 153.199219 55.171875 158.523438 C 54.386719 163.847656 52.328125 168.992188 49.441406 173.53125 C 47.429688 176.585938 44.980469 179.421875 41.875 181.382812 L 41.566406 180.164062 L 154.609375 180.164062 L 154.128906 181.253906 C 152.816406 179.769531 151.765625 178.15625 150.804688 176.453125 C 147.828125 171.480469 146.078125 165.851562 145.335938 160.136719 Z M 146.648438 159.964844 C 147.128906 163.671875 148.046875 167.335938 149.449219 170.828125 C 150.847656 174.273438 152.597656 177.632812 155.046875 180.46875 C 155.398438 180.859375 155.089844 181.601562 154.566406 181.558594 L 41.523438 181.558594 C 41.175781 181.558594 40.867188 181.253906 40.867188 180.902344 C 40.867188 180.640625 41 180.425781 41.21875 180.335938 C 41.917969 179.945312 42.617188 179.378906 43.273438 178.808594 C 49.003906 173.660156 52.59375 166.027344 53.773438 158.4375 C 54.78125 151.324219 52.898438 143.648438 56.09375 136.882812 C 56.835938 135.3125 57.753906 133.65625 59.242188 132.652344 C 61.953125 130.644531 64.929688 129.164062 67.597656 127.199219 C 67.640625 127.199219 67.640625 127.15625 67.640625 127.15625 C 67.597656 127.199219 67.554688 127.285156 67.554688 127.332031 C 67.816406 126.71875 67.902344 126.195312 67.816406 125.496094 C 67.683594 124.625 67.464844 123.449219 67.773438 122.53125 C 67.902344 122.007812 68.167969 121.527344 68.429688 121.136719 C 71.578125 116.421875 77.132812 114.328125 82.429688 113.152344 C 83.914062 113.195312 85.445312 112.933594 86.933594 112.933594 C 88.988281 112.933594 91.089844 113.238281 93.144531 113.5 C 99.050781 114.417969 104.738281 115.988281 110.558594 117.253906 L 110.164062 117.207031 C 111.519531 116.945312 112.789062 117.078125 114.101562 117.253906 C 122.5 118.515625 125.34375 122.183594 127.617188 129.992188 C 127.882812 130.863281 128.101562 131.738281 128.320312 132.652344 L 127.882812 132.128906 C 132.082031 133.613281 136.804688 134.964844 139.472656 138.847656 C 140.4375 140.027344 141.136719 141.421875 141.75 142.816406 C 143.980469 148.402344 145.730469 154.03125 146.648438 159.964844 Z M 146.648438 159.964844 "/></g><path style=" stroke:none;fill-rule:nonzero;fill:#000000;fill-opacity:1;" d="M 77.046875 131.34375 C 80.285156 138.238281 85.316406 144.082031 91.308594 148.707031 C 91.527344 148.882812 91.308594 149.230469 91.046875 149.101562 C 85.707031 146.570312 81.203125 142.25 78.535156 137.015625 C 77.660156 135.269531 76.914062 133.394531 76.652344 131.429688 C 76.566406 131.214844 76.914062 131.125 77.046875 131.34375 Z M 128.273438 132.785156 C 128.40625 140.070312 125.429688 147.53125 119.742188 152.242188 C 119.613281 152.371094 119.4375 152.328125 119.304688 152.199219 C 119.175781 152.066406 119.21875 151.890625 119.351562 151.761719 C 120.617188 150.539062 121.886719 149.273438 122.851562 147.792969 C 124.863281 144.910156 126.085938 141.507812 126.65625 138.0625 C 126.917969 136.359375 127.09375 134.527344 126.960938 132.828125 C 126.917969 132 128.230469 131.910156 128.273438 132.785156 Z M 102.507812 150.101562 C 101.5 153.636719 100.671875 157.476562 101.152344 161.140625 C 101.28125 161.96875 100.015625 162.1875 99.839844 161.316406 C 99.621094 159.308594 99.882812 157.34375 100.234375 155.425781 C 100.625 153.507812 101.109375 151.675781 101.765625 149.839844 C 101.9375 149.40625 102.683594 149.625 102.507812 150.101562 Z M 116.417969 149.449219 C 117.863281 152.546875 118.867188 155.773438 119.65625 159.046875 C 119.742188 159.394531 119.523438 159.746094 119.175781 159.832031 C 118.824219 159.917969 118.476562 159.703125 118.386719 159.351562 C 117.949219 156.910156 117.382812 154.464844 116.59375 152.066406 C 116.332031 151.28125 116.070312 150.496094 115.761719 149.710938 C 115.589844 149.316406 116.199219 149.011719 116.417969 149.449219 Z M 116.417969 149.449219 "/><path style=" stroke:none;fill-rule:nonzero;fill:#000000;fill-opacity:1;" d="M 69.433594 127.59375 C 71.054688 136.40625 77.265625 143.863281 84.746094 148.621094 C 87.285156 150.234375 89.996094 151.628906 92.796875 152.765625 C 92.972656 152.851562 93.058594 153.027344 92.972656 153.199219 C 92.925781 153.375 92.707031 153.460938 92.578125 153.375 C 89.691406 152.328125 86.890625 151.019531 84.265625 149.449219 C 78.929688 146.308594 74.246094 141.945312 71.097656 136.621094 C 69.480469 133.875 68.210938 130.996094 67.597656 127.855469 C 67.511719 127.332031 67.859375 126.851562 68.386719 126.761719 C 68.867188 126.632812 69.390625 127.023438 69.433594 127.59375 Z M 99.882812 162.101562 C 98.65625 161.96875 97.78125 160.835938 98.046875 159.613281 L 98.527344 157.300781 C 98.703125 156.386719 99.578125 155.730469 100.496094 155.863281 C 101.414062 155.949219 102.15625 156.734375 102.15625 157.695312 L 102.15625 160.050781 C 102.203125 161.273438 101.152344 162.230469 99.882812 162.101562 Z M 120.050781 160.488281 C 118.867188 160.921875 117.601562 160.226562 117.292969 159.003906 L 116.726562 156.691406 C 116.507812 155.773438 116.988281 154.859375 117.90625 154.507812 C 118.78125 154.203125 119.789062 154.597656 120.179688 155.425781 L 121.230469 157.5625 C 121.757812 158.742188 121.230469 160.09375 120.050781 160.488281 Z M 120.050781 160.488281 "/><g clip-rule="nonzero" clip-path="url(#15145510f3)"><path style="fill:none;stroke-width:5.126;stroke-linecap:round;stroke-linejoin:round;stroke:#000000;stroke-opacity:1;stroke-miterlimit:10;" d="M 60.197512 340.396002 C 60.197512 340.396002 59.295664 318.101191 56.304386 312.102186 M 236.700787 290.604258 C 236.700787 290.604258 242.299389 321.996068 240.102808 340.396002 M 220.60146 320.796267 C 220.60146 320.796267 205.796865 322.998886 192.795966 322.398986 " transform="matrix(0.43747,0,0,0.43627,36.712284,32.397695)"/></g><path style=" stroke:none;fill-rule:nonzero;fill:#000000;fill-opacity:1;" d="M 83.128906 126.019531 C 82.515625 124.277344 82.253906 122.488281 82.382812 120.65625 C 82.382812 120.480469 82.515625 120.394531 82.691406 120.394531 C 82.820312 120.394531 82.953125 120.523438 82.953125 120.65625 C 83.085938 122.3125 83.566406 124.015625 84.351562 125.453125 C 84.746094 126.328125 83.433594 126.894531 83.128906 126.019531 Z M 112.699219 128.332031 C 111.476562 125.585938 108.457031 124.1875 105.789062 123.230469 C 104.125 122.707031 102.289062 122.3125 100.539062 122.050781 C 96.296875 121.398438 90.300781 120.394531 86.058594 119.957031 C 86.015625 119.957031 86.015625 119.871094 86.058594 119.871094 C 87.285156 119.738281 88.507812 119.738281 89.734375 119.738281 C 93.410156 119.828125 97.082031 120.21875 100.714844 120.785156 C 104.34375 121.351562 108.238281 122.445312 110.996094 125.0625 C 111.871094 125.976562 112.65625 127.023438 112.875 128.289062 C 112.917969 128.421875 112.746094 128.464844 112.699219 128.332031 Z M 112.699219 128.332031 "/><path style=" stroke:none;fill-rule:nonzero;fill:#ffffff;fill-opacity:1;" d="M 116.769531 139.546875 C 115.851562 144.039062 109.902344 146.742188 99.882812 142.6875 C 89.46875 138.5 84.964844 128.507812 83.828125 125.542969 C 89.996094 114.023438 85.707031 106.039062 85.707031 106.039062 C 99.925781 104.820312 112.351562 121.398438 112.351562 121.398438 L 114.273438 129.597656 C 114.449219 130.296875 114.800781 130.90625 115.324219 131.34375 C 116.242188 132.957031 117.335938 136.667969 116.769531 139.546875 Z M 116.769531 139.546875 "/><path style=" stroke:none;fill-rule:nonzero;fill:#000000;fill-opacity:1;" d="M 83.609375 125.671875 C 84.441406 124.40625 84.964844 122.921875 85.316406 121.484375 C 85.972656 118.472656 86.191406 115.421875 86.234375 112.367188 L 86.234375 111.230469 C 86.101562 110.097656 85.707031 108.917969 85.269531 107.871094 C 84.703125 106.476562 86.757812 105.605469 87.414062 107 C 87.503906 107.175781 87.503906 107.480469 87.503906 107.65625 C 87.632812 113.585938 87.894531 121.222656 84.132812 126.152344 C 83.871094 126.414062 83.347656 126.019531 83.609375 125.671875 Z M 112.832031 121.308594 C 113.488281 121.703125 113.707031 122.226562 113.792969 122.75 C 114.058594 123.796875 113.96875 124.929688 114.230469 126.019531 C 114.449219 127.066406 115.105469 128.070312 115.28125 129.164062 C 115.5 130.296875 116.15625 132.695312 116.417969 133.875 C 116.507812 134.136719 116.332031 134.441406 116.027344 134.484375 C 115.851562 134.527344 115.71875 134.484375 115.589844 134.398438 C 115.019531 133.917969 114.757812 133.4375 114.40625 132.828125 C 113.839844 131.78125 113.445312 130.820312 113.09375 129.640625 C 112.789062 128.59375 112.917969 127.460938 112.65625 126.371094 C 112.4375 125.324219 111.824219 124.320312 111.605469 123.230469 C 111.476562 122.707031 111.433594 122.136719 111.824219 121.484375 C 112.089844 121.222656 112.527344 121.136719 112.832031 121.308594 Z M 112.832031 121.308594 "/><path style=" stroke:none;fill-rule:nonzero;fill:#000000;fill-opacity:1;" d="M 115.980469 132.828125 C 107.625 132.390625 100.800781 129.773438 94.152344 117.949219 C 99.75 122.878906 106.359375 124.757812 113.3125 125.628906 L 114.230469 129.640625 C 114.40625 130.339844 115.457031 132.390625 115.980469 132.828125 Z M 115.980469 132.828125 "/><path style=" stroke:none;fill-rule:nonzero;fill:#000000;fill-opacity:1;" d="M 115.632812 131.214844 C 117.121094 134.003906 117.996094 137.496094 117.074219 140.59375 C 116.375 142.773438 114.363281 144.386719 112.175781 145 C 107.101562 146.351562 101.238281 144.214844 96.734375 141.8125 C 91.175781 138.714844 87.066406 133.523438 84.441406 127.855469 C 84.265625 127.417969 84.878906 127.066406 85.140625 127.503906 C 86.058594 129.335938 87.109375 131.125 88.289062 132.738281 C 89.472656 134.398438 90.828125 135.925781 92.359375 137.277344 C 96.820312 141.289062 102.859375 143.777344 108.894531 143.777344 C 115.105469 143.601562 117.46875 140.332031 116.027344 134.308594 C 115.808594 133.351562 115.457031 132.347656 114.976562 131.519531 C 114.714844 131.167969 115.371094 130.777344 115.632812 131.214844 Z M 115.632812 131.214844 "/><path style=" stroke:none;fill-rule:nonzero;fill:#ffffff;fill-opacity:1;" d="M 132.5625 78.816406 C 133.347656 82.480469 133.742188 85.449219 131.597656 95.21875 C 129.5 104.949219 134.617188 106.957031 122.5 122.53125 C 117.558594 128.902344 105.570312 127.113281 95.859375 120.523438 C 92.578125 118.300781 91.175781 112.585938 88.726562 108.527344 C 86.800781 105.34375 85.925781 108.65625 83.390625 105.910156 C 79.933594 102.15625 75.777344 94.609375 77.835938 81.261719 C 81.160156 59.621094 98.351562 57.089844 111.082031 59.488281 C 123.898438 61.933594 130.460938 69.175781 132.5625 78.816406 Z M 132.5625 78.816406 "/><path style=" stroke:none;fill-rule:nonzero;fill:#000000;fill-opacity:1;" d="M 85.578125 109.792969 C 84.570312 108.089844 83.257812 106.605469 82.035156 105.035156 C 80.851562 103.421875 79.890625 101.632812 79.101562 99.800781 C 73.898438 87.0625 75.910156 69.132812 88.683594 61.628906 C 93.976562 58.574219 100.363281 57.832031 106.3125 58.3125 C 119.042969 59.226562 130.722656 65.074219 133.480469 78.511719 C 134.96875 84.445312 132.957031 90.550781 131.816406 96.355469 C 131.292969 99.234375 131.730469 102.199219 131.6875 105.167969 C 131.644531 108.179688 130.8125 111.1875 129.675781 113.980469 C 128.976562 115.898438 127.75 117.601562 126.480469 119.171875 C 124.382812 121.703125 122.28125 124.277344 119.613281 126.238281 C 119 126.675781 117.90625 126.894531 117.164062 126.980469 C 115.105469 127.285156 113.09375 127.375 111.039062 127.242188 C 102.988281 126.894531 94.371094 123.011719 91.132812 115.246094 C 91.003906 114.941406 91.441406 114.722656 91.613281 114.984375 C 95.8125 121.613281 103.515625 124.886719 111.167969 125.324219 C 113.53125 125.453125 115.9375 125.410156 118.257812 124.929688 C 119.394531 124.363281 120.398438 123.359375 121.363281 122.445312 C 123.726562 120.089844 126.132812 117.558594 127.835938 114.679688 C 129.894531 110.796875 131.03125 106.5625 130.679688 102.15625 C 130.59375 100.195312 130.550781 98.144531 130.941406 96.179688 C 131.292969 94.21875 131.730469 92.339844 131.992188 90.335938 C 132.253906 88.414062 132.386719 86.453125 132.386719 84.53125 C 132.167969 78.902344 130.332031 73.101562 126.742188 68.738281 C 118.824219 58.921875 100.101562 56.347656 89.558594 63.066406 C 82.910156 67.167969 79.804688 74.847656 78.796875 82.308594 C 77.265625 91.25 77.703125 100.0625 84.832031 106.5625 L 86.933594 108.746094 C 87.765625 109.703125 86.277344 110.839844 85.578125 109.792969 Z M 85.578125 109.792969 "/><path style=" stroke:none;fill-rule:nonzero;fill:#ffffff;fill-opacity:1;" d="M 90.738281 95.917969 C 90.738281 95.917969 89.382812 89.375 82.996094 90.160156 C 77.484375 90.859375 75.558594 104.035156 88.070312 107.699219 "/><path style=" stroke:none;fill-rule:nonzero;fill:#000000;fill-opacity:1;" d="M 87.503906 101.984375 C 86.496094 101.414062 85.796875 100.457031 85.753906 99.277344 C 85.796875 98.40625 85.925781 97.402344 85.707031 96.53125 C 85.578125 95.699219 84.703125 95.480469 84.046875 95.527344 C 83.347656 95.65625 82.910156 96.53125 82.777344 97.226562 C 82.777344 97.269531 82.734375 97.402344 82.734375 97.445312 C 82.691406 97.664062 82.339844 97.664062 82.253906 97.445312 C 81.683594 95.742188 82.953125 93.867188 84.789062 94.085938 C 87.371094 94.261719 87.722656 96.964844 87.238281 99.015625 C 86.976562 99.890625 87.328125 100.675781 87.808594 101.414062 L 87.894531 101.546875 C 88.113281 101.808594 87.765625 102.15625 87.503906 101.984375 Z M 122.5 91.292969 C 123.15625 94.390625 124.382812 97.269531 125.914062 99.976562 C 127.269531 103.292969 123.769531 106.433594 120.664062 106.300781 C 120.3125 106.300781 120.269531 105.820312 120.574219 105.734375 C 122.542969 105.125 124.335938 103.816406 124.644531 101.808594 C 124.773438 101.199219 124.601562 100.675781 124.292969 100.152344 C 122.851562 97.445312 121.976562 94.347656 122.195312 91.292969 C 122.195312 91.074219 122.5 91.074219 122.5 91.292969 Z M 122.5 91.292969 "/><path style=" stroke:none;fill-rule:nonzero;fill:#000000;fill-opacity:1;" d="M 90.519531 95.960938 C 89.515625 93.386719 87.328125 90.945312 84.398438 90.988281 C 84.132812 90.945312 83.695312 91.03125 83.433594 91.03125 C 82.691406 91.074219 82.078125 91.335938 81.507812 91.863281 C 78.710938 94.652344 79.191406 99.582031 81.464844 102.679688 C 82.253906 103.773438 83.257812 104.730469 84.398438 105.515625 C 85.535156 106.300781 86.800781 106.914062 88.160156 107.4375 C 88.464844 107.523438 88.332031 108.003906 88.027344 107.960938 C 85.097656 107.347656 82.296875 105.910156 80.371094 103.507812 C 77.398438 99.933594 76.785156 93.957031 80.328125 90.464844 C 81.117188 89.765625 82.210938 89.242188 83.304688 89.242188 C 83.652344 89.242188 84.179688 89.15625 84.527344 89.242188 C 86.363281 89.332031 88.113281 90.246094 89.253906 91.6875 C 90.257812 92.910156 90.828125 94.390625 91.003906 95.875 C 91.003906 96.136719 90.609375 96.222656 90.519531 95.960938 Z M 90.519531 95.960938 "/><g clip-rule="nonzero" clip-path="url(#d29c3323dc)"><path style=" stroke:none;fill-rule:nonzero;fill:#000000;fill-opacity:1;" d="M 127.445312 66.078125 C 125.210938 64.027344 122.414062 62.019531 119 60.667969 C 108.894531 56.566406 99.488281 56.699219 92.097656 59.882812 C 91.878906 55.605469 90.738281 49.0625 85.707031 47.972656 C 78.097656 46.269531 80.722656 54.558594 83.085938 59.75 C 83.085938 59.75 73.984375 51.636719 70.003906 57.132812 C 66.199219 62.414062 75.734375 68.171875 75.734375 68.171875 C 75.734375 68.171875 61.605469 69.304688 64.578125 77.332031 C 66.328125 81.957031 72.191406 80.429688 76.871094 78.335938 C 73.066406 93.386719 79.671875 103.640625 83.085938 107.742188 C 86.582031 111.929688 86.890625 115.113281 86.890625 115.113281 C 88.683594 114.109375 86.539062 109.617188 86.628906 107.261719 C 75.691406 103.074219 77.660156 90.902344 82.996094 90.203125 C 88.597656 89.503906 90.347656 94.480469 90.652344 95.699219 C 92.664062 93.300781 92.664062 90.988281 92.269531 88.589844 C 90.738281 79.820312 91.613281 75.066406 96.90625 73.929688 C 105.351562 72.097656 112.964844 76.375 123.023438 77.726562 C 126.742188 78.25 129.0625 74.847656 131.816406 76.066406 C 132.125 76.984375 132.386719 77.902344 132.605469 78.859375 C 132.78125 79.601562 132.910156 80.300781 133 81.042969 C 133.4375 74.933594 132.167969 70.441406 127.445312 66.078125 Z M 127.445312 66.078125 "/></g><path style=" stroke:none;fill-rule:nonzero;fill:#000000;fill-opacity:1;" d="M 106.183594 95.742188 C 105.132812 95.699219 104.34375 94.828125 104.433594 93.78125 L 104.476562 92.558594 C 104.519531 91.511719 105.394531 90.726562 106.445312 90.8125 C 107.496094 90.859375 108.28125 91.730469 108.195312 92.777344 L 108.152344 94 C 108.105469 95.003906 107.230469 95.789062 106.183594 95.742188 Z M 124.601562 96.398438 C 123.636719 96.355469 122.894531 95.527344 122.9375 94.566406 L 122.980469 93.433594 C 123.023438 92.472656 123.855469 91.730469 124.820312 91.773438 C 125.78125 91.816406 126.523438 92.648438 126.480469 93.605469 L 126.4375 94.742188 C 126.394531 95.699219 125.5625 96.441406 124.601562 96.398438 Z M 124.601562 96.398438 "/><path style=" stroke:none;fill-rule:nonzero;fill:#000000;fill-opacity:1;" d="M 110.121094 93.386719 C 108.675781 92.429688 107.101562 91.773438 105.351562 92.125 C 104.78125 92.210938 104.214844 92.386719 103.863281 92.777344 C 103.734375 92.953125 103.425781 92.910156 103.425781 92.648438 C 103.46875 91.773438 104.214844 91.207031 104.914062 90.859375 C 106.269531 90.160156 108.152344 90.289062 109.375 91.207031 C 109.8125 91.46875 111.300781 93.082031 110.511719 93.433594 C 110.339844 93.519531 110.25 93.476562 110.121094 93.386719 Z M 122.632812 93.605469 C 122.632812 91.773438 124.90625 91.121094 126.304688 91.773438 C 127.09375 92.125 127.664062 92.820312 127.882812 93.648438 C 127.96875 93.910156 127.574219 94.128906 127.398438 93.910156 C 126.65625 93.039062 125.386719 92.601562 124.382812 93.125 C 124.074219 93.300781 124.03125 93.433594 123.945312 93.605469 C 123.945312 94.480469 122.675781 94.433594 122.632812 93.605469 Z M 112.21875 86.191406 C 113.136719 86.496094 114.058594 85.667969 113.882812 84.664062 C 113.792969 84.140625 113.574219 83.617188 113.136719 83.222656 C 111.824219 82.046875 106.402344 81 103.121094 82.523438 C 100.234375 83.921875 108.019531 84.792969 112.21875 86.191406 Z M 125.300781 86.886719 C 124.558594 87.148438 123.769531 86.363281 123.902344 85.449219 C 123.945312 84.96875 124.121094 84.488281 124.46875 84.140625 C 125.519531 83.09375 129.105469 82.261719 131.382812 83.878906 C 133.351562 85.230469 128.710938 85.621094 125.300781 86.886719 Z M 125.300781 86.886719 "/><path style=" stroke:none;fill-rule:nonzero;fill:#ffffff;fill-opacity:1;" d="M 118.167969 110.488281 C 118.214844 111.929688 116.070312 115.59375 111.957031 113.894531 C 107.976562 112.277344 106.796875 104.6875 112.480469 108.308594 C 115.371094 110.226562 117.207031 110.535156 118.167969 110.488281 Z M 118.167969 110.488281 "/><path style=" stroke:none;fill-rule:nonzero;fill:#000000;fill-opacity:1;" d="M 119.085938 110.535156 C 117.90625 110.925781 116.769531 110.578125 115.675781 110.183594 C 114.058594 109.617188 112.746094 108.570312 111.214844 107.828125 C 109.113281 106.824219 108.28125 108.179688 108.851562 110.140625 C 109.417969 112.234375 111.257812 114.066406 113.53125 114.15625 C 115.542969 114.371094 117.6875 112.539062 117.511719 110.488281 C 117.339844 109.617188 118.605469 109.355469 118.824219 110.183594 C 118.78125 111.667969 117.863281 112.714844 116.902344 113.585938 C 114.976562 115.15625 112.042969 114.808594 110.121094 113.371094 C 108.632812 112.191406 107.40625 110.316406 107.667969 108.308594 C 107.757812 107.4375 108.589844 106.433594 109.507812 106.390625 C 111.652344 106.214844 112.917969 107.65625 114.582031 108.613281 C 115.894531 109.355469 117.382812 110.273438 118.914062 110.140625 C 119.175781 110.054688 119.351562 110.402344 119.085938 110.535156 Z M 119.085938 110.535156 "/><path style=" stroke:none;fill-rule:nonzero;fill:#000000;fill-opacity:1;" d="M 108.9375 108.917969 C 109.636719 109.921875 110.730469 110.445312 111.871094 110.707031 C 112.132812 110.796875 112.351562 110.796875 112.570312 110.796875 C 112.960938 110.796875 113.355469 111.101562 113.574219 111.320312 C 114.625 112.148438 116.070312 112.277344 117.382812 112.324219 C 117.6875 112.324219 117.6875 112.847656 117.382812 112.800781 C 115.980469 112.714844 114.492188 112.585938 113.179688 111.929688 C 112.917969 111.84375 112.789062 111.753906 112.570312 111.753906 C 111.738281 111.84375 111.082031 111.320312 110.46875 110.96875 C 109.769531 110.578125 109.070312 110.183594 108.238281 110.011719 C 107.84375 109.921875 107.625 109.574219 107.667969 109.179688 C 107.757812 108.570312 108.632812 108.394531 108.9375 108.917969 Z M 108.9375 108.917969 "/><path style=" stroke:none;fill-rule:nonzero;fill:#000000;fill-opacity:1;" d="M 125.5625 117.820312 C 126.21875 114.375 126.4375 110.886719 125.867188 107.4375 C 125.648438 106.128906 124.863281 103.949219 123.636719 104.90625 C 123.15625 105.300781 120.664062 106.085938 120.179688 106.128906 C 118.78125 106.261719 117.730469 106.085938 116.726562 105.300781 C 115.589844 104.382812 115.589844 103.992188 115.324219 103.90625 C 110.730469 102.378906 104.957031 100.851562 103.078125 107.003906 C 101.546875 112.019531 97.695312 116.949219 94.851562 112.0625 C 92.664062 108.355469 92.796875 101.285156 92.488281 99.804688 C 91.746094 96.140625 90.695312 94.351562 90.082031 94.875 C 90.082031 96.050781 90.476562 109.96875 90.519531 110.710938 C 90.828125 114.550781 91.308594 115.769531 93.058594 118.257812 C 94.808594 120.746094 100.933594 127.507812 108.894531 128.074219 C 116.902344 128.640625 121.320312 127.988281 125.78125 122.882812 C 129.804688 118.257812 129.9375 108.660156 129.9375 108.660156 C 127.96875 114.460938 126.613281 116.382812 125.5625 117.820312 Z M 107.539062 108.003906 C 109.8125 105.519531 113.136719 108.398438 116.726562 108.660156 C 120.269531 108.921875 121.710938 106.695312 121.976562 110.625 C 122.0625 111.582031 122.195312 113.195312 122.148438 114.289062 L 122.148438 114.417969 C 122.019531 115.640625 121.625 116.992188 120.398438 117.734375 C 117.820312 119.347656 113.664062 118.957031 110.996094 118.433594 C 107.277344 117.691406 106.488281 115.988281 106.3125 115.203125 C 106.050781 111.84375 106.621094 109.007812 107.539062 108.003906 Z M 107.539062 108.003906 "/><path style=" stroke:none;fill-rule:nonzero;fill:#000000;fill-opacity:1;" d="M 113.269531 101.152344 C 111.257812 101.199219 105.046875 101.242188 103.121094 101.285156 C 99.796875 101.328125 97.300781 98.449219 97.609375 95.175781 C 97.652344 94.085938 97.609375 92.558594 97.652344 91.46875 C 97.738281 88.632812 100.277344 86.234375 103.121094 86.320312 L 110.515625 86.40625 C 111.082031 86.40625 112.703125 86.453125 113.269531 86.453125 C 115.632812 86.40625 117.863281 88.152344 118.386719 90.464844 C 118.5625 91.121094 118.519531 91.816406 118.519531 92.386719 L 118.519531 96.09375 C 118.476562 98.839844 116.027344 101.199219 113.269531 101.152344 Z M 113.269531 100.195312 C 115.542969 100.28125 117.644531 98.316406 117.6875 96.050781 C 117.730469 94.871094 117.6875 93.605469 117.6875 92.386719 C 117.949219 89.722656 115.9375 87.28125 113.226562 87.367188 C 111.34375 87.410156 105.046875 87.453125 103.078125 87.5 C 100.714844 87.5 98.703125 89.636719 98.878906 91.992188 L 98.878906 93.386719 C 98.921875 94.347656 98.789062 96.007812 99.007812 96.878906 C 99.445312 98.710938 101.195312 100.105469 103.078125 100.105469 L 103.996094 100.105469 C 105.265625 100.105469 111.957031 100.195312 113.269531 100.195312 Z M 130.898438 87.585938 L 127.445312 87.628906 C 126.480469 87.671875 125.34375 87.5 124.511719 88.066406 C 123.726562 88.589844 123.375 89.550781 123.417969 90.464844 C 123.417969 91.597656 123.417969 92.777344 123.375 93.910156 L 123.332031 93.738281 C 123.945312 95.875 124.773438 97.925781 126.042969 99.714844 L 125.605469 99.453125 C 125.957031 99.539062 126.570312 99.539062 126.917969 99.539062 C 128.230469 99.582031 129.761719 99.671875 131.074219 99.671875 C 132.300781 99.671875 133.480469 98.753906 133.742188 97.53125 C 133.832031 97.183594 133.832031 96.574219 133.832031 96.222656 C 133.832031 94.347656 133.875 92.515625 133.785156 90.640625 C 133.875 88.980469 132.605469 87.5 130.898438 87.585938 Z M 130.898438 86.277344 C 133.21875 86.277344 134.835938 88.503906 134.441406 90.683594 C 134.355469 92.558594 134.398438 94.390625 134.398438 96.269531 C 134.617188 98.449219 133.304688 100.414062 131.03125 100.585938 C 130.066406 100.628906 129.148438 100.628906 128.230469 100.675781 C 127.75 100.675781 126.570312 100.761719 126.132812 100.761719 C 125.914062 100.804688 125.5625 100.761719 125.34375 100.761719 C 125.167969 100.761719 124.992188 100.628906 124.90625 100.5 C 123.550781 98.492188 122.585938 96.269531 122.019531 93.957031 C 122.019531 92.472656 121.886719 90.988281 122.019531 89.503906 C 122.28125 87.761719 123.855469 86.277344 125.648438 86.234375 C 126.875 86.191406 129.675781 86.277344 130.898438 86.277344 Z M 130.898438 86.277344 "/><path style=" stroke:none;fill-rule:nonzero;fill:#000000;fill-opacity:1;" d="M 118.039062 90.289062 C 119.21875 89.765625 120.53125 89.550781 121.84375 89.636719 C 122.28125 89.679688 122.71875 89.8125 123.113281 90.160156 L 123.679688 90.640625 C 124.25 91.121094 123.550781 91.949219 122.980469 91.46875 C 122.28125 90.859375 121.449219 90.945312 120.617188 90.988281 C 119.789062 91.074219 119 91.25 118.214844 91.554688 C 117.46875 91.859375 116.988281 90.769531 117.6875 90.421875 Z M 98.351562 91.863281 C 98.046875 92.558594 97.695312 92.648438 97.125 92.601562 L 95.859375 92.648438 C 93.320312 92.648438 90.738281 92.601562 88.203125 92.210938 C 87.328125 92.167969 87.285156 90.945312 88.160156 90.902344 L 98.308594 90.550781 C 98.613281 90.550781 98.832031 90.859375 98.703125 91.121094 Z M 98.351562 91.863281 "/></g></svg>